# xmcd CD database file
#
# Track frame offsets:
#	150
#	14906
#	30294
#	46777
#	61401
#	80714
#	99160
#	114969
#	128500
#	144214
#	160345
#	175313
#	193878
#
# Disc length: 2813 seconds
#
# Revision: 0
# Processed by: cddbd v1.5.2PL0 Copyright (c) Steve Scherf et al.
# Submitted via: CDex 1.51
#
DISCID=a20afb0d
DTITLE=Hiromi Kanda - Hiromi in Love
DYEAR=2009
DGENRE=Jazz
TTITLE0=That Old Feeling
TTITLE1=Always Here For You
TTITLE2=How Deep is the Ocean
TTITLE3=I'll Never Smile Again
TTITLE4=Blue Love
TTITLE5=Someone to Watch Over Me
TTITLE6=My Funny Valentine
TTITLE7=In the Wee Small Hours of the Morning
TTITLE8=All the Way
TTITLE9=When I Fall in Love
TTITLE10=Cry
TTITLE11=The Second Time Around
TTITLE12=Unforgettable
EXTD=YEAR: 2009
EXTT0=
EXTT1=
EXTT2=
EXTT3=
EXTT4=
EXTT5=
EXTT6=
EXTT7=
EXTT8=
EXTT9=
EXTT10=
EXTT11=
EXTT12=
PLAYORDER=
